<svg version="1.1" xmlns="http://www.w3.org/2000/svg" viewBox="0 0 1218.9431696758181 630.8460828993055" width="2437.8863393516363" height="1261.692165798611">
  <!-- svg-source:excalidraw -->
  
  <defs>
    <style class="style-fonts">
      @font-face {
        font-family: "Virgil";
        src: url("https://excalidraw.com/Virgil.woff2");
      }
      @font-face {
        font-family: "Cascadia";
        src: url("https://excalidraw.com/Cascadia.woff2");
      }
    </style>
    
  </defs>
  <rect x="0" y="0" width="1218.9431696758181" height="630.8460828993055" fill="#ffffff"></rect><g stroke-linecap="round" transform="translate(685.1136612122762 502.46047498464327) rotate(0 261.914754231771 53.86474609375006)"><path d="M26.93 0 M26.93 0 C121.09 -0.1, 215.72 -0.95, 496.9 0 M26.93 0 C153.04 -1.99, 278.17 -2.05, 496.9 0 M496.9 0 C516.15 -0.99, 525.27 7.43, 523.83 26.93 M496.9 0 C515.76 -0.43, 525.2 7.69, 523.83 26.93 M523.83 26.93 C521.36 39.96, 521.99 48.92, 523.83 80.8 M523.83 26.93 C523.16 44.57, 524.82 60.47, 523.83 80.8 M523.83 80.8 C522.17 99.99, 515.21 107.14, 496.9 107.73 M523.83 80.8 C522.74 100.32, 513.22 105.64, 496.9 107.73 M496.9 107.73 C374.45 105.6, 252.89 106.38, 26.93 107.73 M496.9 107.73 C310.47 108.53, 123.22 108.78, 26.93 107.73 M26.93 107.73 C9.96 106.51, 1.75 100.1, 0 80.8 M26.93 107.73 C6.72 108.56, 1.27 97.54, 0 80.8 M0 80.8 C0.91 69.33, -0.08 55.51, 0 26.93 M0 80.8 C0.22 70.69, -0.29 59.42, 0 26.93 M0 26.93 C-0.69 10.49, 10.24 -0.63, 26.93 0 M0 26.93 C2.13 6.86, 6.98 1.13, 26.93 0" stroke="#1e1e1e" stroke-width="1" fill="none"></path></g><g transform="translate(1082.655572019568 512.7143812346433) rotate(0 55.63993835449219 12.5)"><text x="0" y="0" font-family="Virgil, Segoe UI Emoji" font-size="20px" fill="#1e1e1e" text-anchor="start" style="white-space: pre;" direction="ltr" dominant-baseline="text-before-edge">fly.io (prod)</text></g><g stroke-linecap="round" transform="translate(715.2197810039429 529.4885511565183) rotate(0 48.302734375 23.51171875)"><path d="M11.76 0 M11.76 0 C33.24 1.03, 50.82 1.3, 84.85 0 M11.76 0 C39.77 0.07, 68.08 -1.06, 84.85 0 M84.85 0 C92.65 1.15, 95.63 5.13, 96.61 11.76 M84.85 0 C94.61 2.02, 96.19 3.71, 96.61 11.76 M96.61 11.76 C96.96 16.09, 97.18 24.09, 96.61 35.27 M96.61 11.76 C96.15 17.21, 96.76 21.53, 96.61 35.27 M96.61 35.27 C97.49 42.29, 93.79 46.17, 84.85 47.02 M96.61 35.27 C96.22 44.97, 93.36 46.84, 84.85 47.02 M84.85 47.02 C59.1 46.77, 37.54 48.52, 11.76 47.02 M84.85 47.02 C63.31 47.19, 41.83 47.01, 11.76 47.02 M11.76 47.02 C4.12 48.61, -1.12 42.78, 0 35.27 M11.76 47.02 C4.89 47.39, 0.67 45.06, 0 35.27 M0 35.27 C1.58 24.47, -1.49 15.55, 0 11.76 M0 35.27 C-0.29 26.98, -0.04 17.1, 0 11.76 M0 11.76 C1.25 3.64, 1.94 -1.39, 11.76 0 M0 11.76 C-0.87 5.04, 1.73 0.93, 11.76 0" stroke="#1e1e1e" stroke-width="1" fill="none"></path></g><g transform="translate(744.392533384314 540.5002699065183) rotate(0 19.129981994628906 12.5)"><text x="19.129981994628906" y="0" font-family="Virgil, Segoe UI Emoji" font-size="20px" fill="#1e1e1e" text-anchor="middle" style="white-space: pre;" direction="ltr" dominant-baseline="text-before-edge">App1</text></g><g stroke-linecap="round" transform="translate(834.0835505351929 529.9453382658933) rotate(0 48.302734375 23.51171875)"><path d="M11.76 0 M11.76 0 C39.61 -1.1, 67.57 -1.13, 84.85 0 M11.76 0 C35.68 -1.03, 59.07 -0.09, 84.85 0 M84.85 0 C91.5 0.6, 96.62 2.84, 96.61 11.76 M84.85 0 C93.71 -0.94, 97.87 2.93, 96.61 11.76 M96.61 11.76 C96.64 18.98, 97.53 23.79, 96.61 35.27 M96.61 11.76 C97.61 16.78, 96.8 21.32, 96.61 35.27 M96.61 35.27 C97.48 44.13, 94.57 47.67, 84.85 47.02 M96.61 35.27 C96.84 44.93, 91.4 46.65, 84.85 47.02 M84.85 47.02 C61.54 49.08, 35.02 48.59, 11.76 47.02 M84.85 47.02 C56.42 47.3, 29.22 46.98, 11.76 47.02 M11.76 47.02 C3.33 48.39, -0.09 42.67, 0 35.27 M11.76 47.02 C5.36 46.7, -2.28 41.51, 0 35.27 M0 35.27 C0.7 28.66, 0.61 21.07, 0 11.76 M0 35.27 C-0.04 27.38, -0.39 17.79, 0 11.76 M0 11.76 C0.82 2.34, 5.29 -0.69, 11.76 0 M0 11.76 C0.27 5.1, 5.88 -2.2, 11.76 0" stroke="#1e1e1e" stroke-width="1" fill="none"></path></g><g transform="translate(863.256302915564 540.9570570158933) rotate(0 19.129981994628906 12.5)"><text x="19.129981994628906" y="0" font-family="Virgil, Segoe UI Emoji" font-size="20px" fill="#1e1e1e" text-anchor="middle" style="white-space: pre;" direction="ltr" dominant-baseline="text-before-edge">App1</text></g><g stroke-linecap="round" transform="translate(949.1653376445679 532.2363538908933) rotate(0 48.302734375 23.51171875)"><path d="M11.76 0 M11.76 0 C29.66 1.6, 44.75 1.68, 84.85 0 M11.76 0 C34.65 -0.76, 57.97 -0.63, 84.85 0 M84.85 0 C93.79 -0.86, 96.27 5.54, 96.61 11.76 M84.85 0 C93.36 -0.18, 97.26 4.77, 96.61 11.76 M96.61 11.76 C97.12 19.27, 96.42 23.21, 96.61 35.27 M96.61 11.76 C97.65 18.03, 96.81 24.45, 96.61 35.27 M96.61 35.27 C95.49 42.78, 93.53 47.34, 84.85 47.02 M96.61 35.27 C97.27 45.06, 94.81 47.24, 84.85 47.02 M84.85 47.02 C56.52 45.18, 32.76 46.39, 11.76 47.02 M84.85 47.02 C59.27 47.3, 34.41 47.38, 11.76 47.02 M11.76 47.02 C1.94 45.63, -0.75 44.08, 0 35.27 M11.76 47.02 C1.73 47.96, -0.51 43.94, 0 35.27 M0 35.27 C-0.19 30.68, 1.03 25.12, 0 11.76 M0 35.27 C0.59 29.13, 0.02 24.2, 0 11.76 M0 11.76 C1.71 2.01, 5.05 1.4, 11.76 0 M0 11.76 C0.59 5.74, 1.93 -1.97, 11.76 0" stroke="#1e1e1e" stroke-width="1" fill="none"></path></g><g transform="translate(978.338090024939 543.2480726408933) rotate(0 19.129981994628906 12.5)"><text x="19.129981994628906" y="0" font-family="Virgil, Segoe UI Emoji" font-size="20px" fill="#1e1e1e" text-anchor="middle" style="white-space: pre;" direction="ltr" dominant-baseline="text-before-edge">App1</text></g><g stroke-linecap="round" transform="translate(111.8527696397573 304.32671440972194) rotate(0 67 40)"><path d="M20 0 M20 0 C55.47 -0.54, 88.17 2, 114 0 M20 0 C53.02 0.42, 85.72 0.91, 114 0 M114 0 C128.31 1.46, 135.55 6.79, 134 20 M114 0 C126.25 -1.14, 134.46 6.92, 134 20 M134 20 C135.19 32.96, 135.59 47.91, 134 60 M134 20 C134.63 30.51, 134.3 40.3, 134 60 M134 60 C132.14 74.41, 128.54 80.3, 114 80 M134 60 C135.87 71.56, 126.05 78.94, 114 80 M114 80 C78.61 79.12, 43.69 80.84, 20 80 M114 80 C80.93 78.29, 48.95 80.03, 20 80 M20 80 C5.02 80.18, -1.81 72.09, 0 60 M20 80 C7.33 81.77, 0.49 72.96, 0 60 M0 60 C1.21 47.47, -1 34.99, 0 20 M0 60 C-0.41 51.37, -0.53 42.86, 0 20 M0 20 C-1.92 5.76, 4.99 -1.74, 20 0 M0 20 C0.04 6.12, 4.79 2.1, 20 0" stroke="#1e1e1e" stroke-width="1" fill="none"></path></g><g transform="translate(163.96278550889792 331.82671440972194) rotate(0 14.889984130859375 12.5)"><text x="14.889984130859375" y="0" font-family="Virgil, Segoe UI Emoji" font-size="20px" fill="#1e1e1e" text-anchor="middle" style="white-space: pre;" direction="ltr" dominant-baseline="text-before-edge">cfg</text></g><g stroke-linecap="round" transform="translate(10 513.1165907118054) rotate(0 266.2279052734376 53.86474609375006)"><path d="M26.93 0 M26.93 0 C189.11 1.54, 350.61 1.73, 505.52 0 M26.93 0 C189.43 -0.75, 351.98 -0.74, 505.52 0 M505.52 0 C521.86 -1.03, 533.73 8.56, 532.46 26.93 M505.52 0 C523.18 1.71, 531.08 9.32, 532.46 26.93 M532.46 26.93 C532.13 41.58, 531.04 56.75, 532.46 80.8 M532.46 26.93 C532.89 44.05, 532.11 63.2, 532.46 80.8 M532.46 80.8 C532.61 100.43, 522.1 106.27, 505.52 107.73 M532.46 80.8 C530.19 98.37, 524.72 105.47, 505.52 107.73 M505.52 107.73 C344.79 108.36, 183.93 108.63, 26.93 107.73 M505.52 107.73 C343.98 108.48, 182.42 108.75, 26.93 107.73 M26.93 107.73 C10.26 107.82, 0.67 100.1, 0 80.8 M26.93 107.73 C9.96 109.68, -1.13 98.37, 0 80.8 M0 80.8 C-1.05 66.25, -0.19 53.42, 0 26.93 M0 80.8 C-0.34 66.49, 0.25 53.42, 0 26.93 M0 26.93 C-1.15 8.39, 7.41 0.07, 26.93 0 M0 26.93 C0.07 7.35, 6.95 1.41, 26.93 0" stroke="#1e1e1e" stroke-width="1" fill="none"></path></g><g transform="translate(383.67173936631974 523.8533528645831) rotate(0 63.409934997558594 12.5)"><text x="0" y="0" font-family="Virgil, Segoe UI Emoji" font-size="20px" fill="#1e1e1e" text-anchor="start" style="white-space: pre;" direction="ltr" dominant-baseline="text-before-edge">fly.io (stage)</text></g><g stroke-linecap="round" transform="translate(553.2708604600692 325.099880642361) rotate(0 48.302734375 23.51171875)"><path d="M11.76 0 M11.76 0 C35.8 0.22, 59.34 0.56, 84.85 0 M11.76 0 C40.38 0.17, 67.59 1.12, 84.85 0 M84.85 0 C91.49 0.3, 95.89 4.88, 96.61 11.76 M84.85 0 C93.9 -0.67, 97.09 1.99, 96.61 11.76 M96.61 11.76 C98.37 20.79, 94.79 27.88, 96.61 35.27 M96.61 11.76 C95.93 18.41, 95.64 26.36, 96.61 35.27 M96.61 35.27 C97.69 41.14, 93.39 47.51, 84.85 47.02 M96.61 35.27 C98.14 42.5, 90.67 45.5, 84.85 47.02 M84.85 47.02 C68.05 45.76, 48.24 45.13, 11.76 47.02 M84.85 47.02 C62.66 47.73, 40.22 47.91, 11.76 47.02 M11.76 47.02 C2.94 46.69, -0.99 41.33, 0 35.27 M11.76 47.02 C2.34 45.27, -1.22 42.34, 0 35.27 M0 35.27 C-0.08 28.09, -0.29 22.69, 0 11.76 M0 35.27 C-0.65 26.25, 0.17 16.46, 0 11.76 M0 11.76 C-1.77 5.14, 4.45 -0.76, 11.76 0 M0 11.76 C1.06 4.61, 2.87 -0.39, 11.76 0" stroke="#1e1e1e" stroke-width="1" fill="none"></path></g><g transform="translate(574.273614671495 336.111599392361) rotate(0 27.29998016357422 12.5)"><text x="27.29998016357422" y="0" font-family="Virgil, Segoe UI Emoji" font-size="20px" fill="#1e1e1e" text-anchor="middle" style="white-space: pre;" direction="ltr" dominant-baseline="text-before-edge">FlyCD</text></g><g stroke-linecap="round" transform="translate(28.381944444444628 540.6275227864581) rotate(0 48.302734375 23.51171875)"><path d="M11.76 0 M11.76 0 C35.84 -1.8, 55.57 1.1, 84.85 0 M11.76 0 C31.57 -0.39, 52.22 -0.06, 84.85 0 M84.85 0 C93.75 -0.58, 97.02 2.24, 96.61 11.76 M84.85 0 C94.25 0.81, 97.64 5.85, 96.61 11.76 M96.61 11.76 C96.66 19.42, 98.06 25.39, 96.61 35.27 M96.61 11.76 C96.91 16.11, 96.73 22.68, 96.61 35.27 M96.61 35.27 C97.94 42.58, 90.94 45.7, 84.85 47.02 M96.61 35.27 C95.29 43.96, 90.43 48.11, 84.85 47.02 M84.85 47.02 C65.09 47.88, 45.09 47.27, 11.76 47.02 M84.85 47.02 C57.51 47.48, 30.66 46.76, 11.76 47.02 M11.76 47.02 C2.54 45.5, -1.06 42.44, 0 35.27 M11.76 47.02 C3.46 46.15, 0.2 42.91, 0 35.27 M0 35.27 C1.74 27.75, -0.54 20.97, 0 11.76 M0 35.27 C-0.89 28.75, 0.26 20.62, 0 11.76 M0 11.76 C0.92 4.52, 3 -0.34, 11.76 0 M0 11.76 C2 4.86, 6.11 0.3, 11.76 0" stroke="#1e1e1e" stroke-width="1" fill="none"></path></g><g transform="translate(57.55469682481572 551.6392415364581) rotate(0 19.129981994628906 12.5)"><text x="19.129981994628906" y="0" font-family="Virgil, Segoe UI Emoji" font-size="20px" fill="#1e1e1e" text-anchor="middle" style="white-space: pre;" direction="ltr" dominant-baseline="text-before-edge">App1</text></g><g stroke-linecap="round" transform="translate(147.24571397569463 541.0843098958331) rotate(0 48.302734375 23.51171875)"><path d="M11.76 0 M11.76 0 C27.34 -0.73, 45.25 -1.66, 84.85 0 M11.76 0 C35.31 -0.64, 58.01 -1.19, 84.85 0 M84.85 0 C94.05 0.71, 97.5 5.6, 96.61 11.76 M84.85 0 C93.13 -2.19, 95.25 4.24, 96.61 11.76 M96.61 11.76 C95.35 17.02, 96.47 27.31, 96.61 35.27 M96.61 11.76 C97.36 16.23, 95.81 20.58, 96.61 35.27 M96.61 35.27 C95.46 43.85, 90.73 47.97, 84.85 47.02 M96.61 35.27 C95.97 41.82, 91.33 47.21, 84.85 47.02 M84.85 47.02 C59.58 48.12, 33.31 46.29, 11.76 47.02 M84.85 47.02 C63.44 45.61, 42.87 46.04, 11.76 47.02 M11.76 47.02 C3.52 46.26, 0.18 42.94, 0 35.27 M11.76 47.02 C3.24 46.59, 0.69 45.06, 0 35.27 M0 35.27 C0.14 29.63, -1.35 22.09, 0 11.76 M0 35.27 C0.4 27.08, -0.52 18.12, 0 11.76 M0 11.76 C1.74 4.74, 5.82 0.26, 11.76 0 M0 11.76 C0.32 5.77, 4.5 1.88, 11.76 0" stroke="#1e1e1e" stroke-width="1" fill="none"></path></g><g transform="translate(176.41846635606572 552.0960286458331) rotate(0 19.129981994628906 12.5)"><text x="19.129981994628906" y="0" font-family="Virgil, Segoe UI Emoji" font-size="20px" fill="#1e1e1e" text-anchor="middle" style="white-space: pre;" direction="ltr" dominant-baseline="text-before-edge">App1</text></g><g stroke-linecap="round" transform="translate(262.3275010850696 543.3753255208331) rotate(0 48.302734375 23.51171875)"><path d="M11.76 0 M11.76 0 C33.03 -0.28, 54.67 1.49, 84.85 0 M11.76 0 C32.23 0.97, 51.8 1.45, 84.85 0 M84.85 0 C93.07 -1.9, 95.42 4.2, 96.61 11.76 M84.85 0 C92.86 1.92, 95.02 2.24, 96.61 11.76 M96.61 11.76 C94.6 17.2, 97.06 22.56, 96.61 35.27 M96.61 11.76 C95.83 18.56, 95.42 25.1, 96.61 35.27 M96.61 35.27 C96.06 41.99, 91.51 47.19, 84.85 47.02 M96.61 35.27 C98.08 43.21, 93.46 48.57, 84.85 47.02 M84.85 47.02 C59.47 45.67, 32.98 45.29, 11.76 47.02 M84.85 47.02 C68.31 46.4, 52.25 46.69, 11.76 47.02 M11.76 47.02 C3.33 46.64, 0.6 44.8, 0 35.27 M11.76 47.02 C2.6 46.35, -1.8 43.18, 0 35.27 M0 35.27 C1.39 28.67, -0.59 21.93, 0 11.76 M0 35.27 C0.98 27.91, 1.06 19.87, 0 11.76 M0 11.76 C0.28 5.53, 4.43 1.63, 11.76 0 M0 11.76 C-1.73 6.11, 5.93 -1.71, 11.76 0" stroke="#1e1e1e" stroke-width="1" fill="none"></path></g><g transform="translate(291.5002534654407 554.3870442708331) rotate(0 19.129981994628906 12.5)"><text x="19.129981994628906" y="0" font-family="Virgil, Segoe UI Emoji" font-size="20px" fill="#1e1e1e" text-anchor="middle" style="white-space: pre;" direction="ltr" dominant-baseline="text-before-edge">App1</text></g><g stroke-linecap="round" transform="translate(387.5753445095491 10) rotate(0 67 40)"><path d="M20 0 M20 0 C54.84 2.51, 90.86 1.82, 114 0 M20 0 C51.08 0.95, 80.88 0.94, 114 0 M114 0 C127.03 -1.46, 134.31 7.85, 134 20 M114 0 C125.96 -1.92, 135.48 7.64, 134 20 M134 20 C134.94 30.23, 135.38 41.38, 134 60 M134 20 C132.9 34.75, 134.45 51.75, 134 60 M134 60 C132.52 72.47, 126.25 79.44, 114 80 M134 60 C134.96 74.26, 125.46 81.83, 114 80 M114 80 C87.07 80.79, 61.94 80.35, 20 80 M114 80 C89.86 79.18, 66.97 80.29, 20 80 M20 80 C8.45 78.71, 1.83 74.17, 0 60 M20 80 C6.4 78.86, 2.16 75.48, 0 60 M0 60 C-1.62 51.42, 0.63 39.2, 0 20 M0 60 C-0.58 45.45, 0.76 29.07, 0 20 M0 20 C-0.23 8.53, 6.48 -0.8, 20 0 M0 20 C-1.22 7.72, 8.71 -1.42, 20 0" stroke="#1e1e1e" stroke-width="1" fill="none"></path></g><g transform="translate(434.33536953396316 25) rotate(0 20.239974975585938 25)"><text x="20.239974975585938" y="0" font-family="Virgil, Segoe UI Emoji" font-size="20px" fill="#1e1e1e" text-anchor="middle" style="white-space: pre;" direction="ltr" dominant-baseline="text-before-edge">App1</text><text x="20.239974975585938" y="25" font-family="Virgil, Segoe UI Emoji" font-size="20px" fill="#1e1e1e" text-anchor="middle" style="white-space: pre;" direction="ltr" dominant-baseline="text-before-edge">repo</text></g><g stroke-linecap="round" transform="translate(582.171698676216 11.312934027777771) rotate(0 67 40)"><path d="M20 0 M20 0 C41.41 0.3, 62.34 0.16, 114 0 M20 0 C50.72 -0.73, 79.94 -0.08, 114 0 M114 0 C127.44 -0.31, 133.66 8.09, 134 20 M114 0 C127.66 -1.8, 132.1 5.94, 134 20 M134 20 C135.91 28.61, 135.74 40.78, 134 60 M134 20 C134.01 30.12, 134.87 41.98, 134 60 M134 60 C132.78 72.08, 127.51 81.45, 114 80 M134 60 C135.69 74.57, 125.55 82.17, 114 80 M114 80 C92.45 79.8, 72.66 82.34, 20 80 M114 80 C85.78 79.53, 58.32 80.77, 20 80 M20 80 C4.82 79.99, -1.09 74.35, 0 60 M20 80 C6.78 81.43, 2.03 74.15, 0 60 M0 60 C-0.43 46.54, -0.44 38.36, 0 20 M0 60 C-0.3 45.06, -1.07 30.37, 0 20 M0 20 C-0.3 6.03, 5.65 -0.79, 20 0 M0 20 C-0.12 8.03, 8.43 -0.75, 20 0" stroke="#1e1e1e" stroke-width="1" fill="none"></path></g><g transform="translate(625.6317206488723 26.31293402777777) rotate(0 23.53997802734375 25)"><text x="23.53997802734375" y="0" font-family="Virgil, Segoe UI Emoji" font-size="20px" fill="#1e1e1e" text-anchor="middle" style="white-space: pre;" direction="ltr" dominant-baseline="text-before-edge">App2</text><text x="23.53997802734375" y="25" font-family="Virgil, Segoe UI Emoji" font-size="20px" fill="#1e1e1e" text-anchor="middle" style="white-space: pre;" direction="ltr" dominant-baseline="text-before-edge">repo</text></g><g stroke-linecap="round" transform="translate(773.192749023438 14.031032986111313) rotate(0 67 40)"><path d="M20 0 M20 0 C51.55 2.01, 85.5 2, 114 0 M20 0 C56.95 0.21, 93.5 0.31, 114 0 M114 0 C128.12 -0.35, 135.65 6.72, 134 20 M114 0 C127.4 -2.1, 133.08 8.28, 134 20 M134 20 C133.82 37.08, 134.34 51.95, 134 60 M134 20 C133.3 34.53, 133.61 49.01, 134 60 M134 60 C135.6 73.44, 125.54 78.63, 114 80 M134 60 C134.89 74.7, 127.22 77.97, 114 80 M114 80 C83.2 80.97, 56.95 79.03, 20 80 M114 80 C88.07 80.68, 60.61 78.99, 20 80 M20 80 C6.53 79.38, -0.41 72.86, 0 60 M20 80 C4.63 79.57, 0 71.05, 0 60 M0 60 C0.11 50.27, 1.52 35.1, 0 20 M0 60 C-0.24 45.74, -0.61 31.91, 0 20 M0 20 C0.11 4.77, 5.42 -0.35, 20 0 M0 20 C-0.13 8.55, 8.42 1.19, 20 0" stroke="#1e1e1e" stroke-width="1" fill="none"></path></g><g transform="translate(816.962768554688 29.031032986111313) rotate(0 23.22998046875 25)"><text x="23.22998046875" y="0" font-family="Virgil, Segoe UI Emoji" font-size="20px" fill="#1e1e1e" text-anchor="middle" style="white-space: pre;" direction="ltr" dominant-baseline="text-before-edge">App3</text><text x="23.22998046875" y="25" font-family="Virgil, Segoe UI Emoji" font-size="20px" fill="#1e1e1e" text-anchor="middle" style="white-space: pre;" direction="ltr" dominant-baseline="text-before-edge">repo</text></g><g mask="url(#mask-iM8Gy1-G5hjRfUa7bt0Jh)" stroke-linecap="round"><g transform="translate(248.6028781467017 341.99196340253445) rotate(0 152.54098748652032 1.511358605318435)"><path d="M0.92 0.96 C51.36 1.21, 252.35 2.34, 302.85 2.6 M-0.06 0.42 C50.75 0.84, 254.57 0.87, 305.14 0.89" stroke="#1e1e1e" stroke-width="1" fill="none"></path></g><g transform="translate(248.6028781467017 341.99196340253445) rotate(0 152.54098748652032 1.511358605318435)"><path d="M278.55 9.78 C287.06 8.18, 295.85 6.45, 304.96 2.72 M276 12.13 C285.54 8.01, 292.17 5.21, 305.87 0.75" stroke="#1e1e1e" stroke-width="1" fill="none"></path></g><g transform="translate(248.6028781467017 341.99196340253445) rotate(0 152.54098748652032 1.511358605318435)"><path d="M278.56 -10.74 C287.25 -5.86, 296.04 -1.12, 304.96 2.72 M276.01 -8.39 C285.35 -7.02, 291.98 -4.34, 305.87 0.75" stroke="#1e1e1e" stroke-width="1" fill="none"></path></g></g><mask id="mask-iM8Gy1-G5hjRfUa7bt0Jh"><rect x="0" y="0" fill="#fff" width="652.2708604600692" height="443.80563861064985"></rect><rect x="334.74692789713544" y="292.8988010065922" fill="#000" width="131.3798828125" height="100" opacity="1"></rect></mask><g transform="translate(334.7469278971355 292.8988010065921) rotate(0 66.39693773608653 50.60452100126073)"><text x="65.68994140625" y="0" font-family="Virgil, Segoe UI Emoji" font-size="20px" fill="#1e1e1e" text-anchor="middle" style="white-space: pre;" direction="ltr" dominant-baseline="text-before-edge">specifies</text><text x="65.68994140625" y="25" font-family="Virgil, Segoe UI Emoji" font-size="20px" fill="#1e1e1e" text-anchor="middle" style="white-space: pre;" direction="ltr" dominant-baseline="text-before-edge">which apps go</text><text x="65.68994140625" y="50" font-family="Virgil, Segoe UI Emoji" font-size="20px" fill="#1e1e1e" text-anchor="middle" style="white-space: pre;" direction="ltr" dominant-baseline="text-before-edge">to what env</text><text x="65.68994140625" y="75" font-family="Virgil, Segoe UI Emoji" font-size="20px" fill="#1e1e1e" text-anchor="middle" style="white-space: pre;" direction="ltr" dominant-baseline="text-before-edge">+ params</text></g><g mask="url(#mask-ScsdTBDCrEVS3OHPUnWv0)" stroke-linecap="round"><g transform="translate(489.8371787032157 92.55642361111092) rotate(0 46.52173508055739 115.19078989256575)"><path d="M-0.07 -0.74 C15.58 37.95, 78.93 192.41, 94.61 231.12 M-1.57 1.49 C13.95 39.93, 78.31 191.36, 94.14 229.4" stroke="#1e1e1e" stroke-width="1" fill="none"></path></g><g transform="translate(489.8371787032157 92.55642361111092) rotate(0 46.52173508055739 115.19078989256575)"><path d="M72.52 208.9 C82.14 215.78, 90.06 224.08, 95.31 231.16 M74.13 206.99 C79.27 213.52, 85.11 220.09, 93.85 229.06" stroke="#1e1e1e" stroke-width="1" fill="none"></path></g><g transform="translate(489.8371787032157 92.55642361111092) rotate(0 46.52173508055739 115.19078989256575)"><path d="M91.43 200.94 C94.23 210.66, 95.38 221.8, 95.31 231.16 M93.04 199.03 C92.7 207.91, 93.05 216.8, 93.85 229.06" stroke="#1e1e1e" stroke-width="1" fill="none"></path></g></g><mask id="mask-ScsdTBDCrEVS3OHPUnWv0"><rect x="0" y="0" fill="#fff" width="683.5433402086699" height="422.90039062499955"></rect><rect x="499.16029882361863" y="182.72840711805523" fill="#000" width="75.05992126464844" height="50" opacity="1"></rect></mask><g transform="translate(499.16029882361863 182.72840711805523) rotate(0 37.19861496015449 25.01880638562143)"><text x="37.52996063232422" y="0" font-family="Virgil, Segoe UI Emoji" font-size="20px" fill="#1e1e1e" text-anchor="middle" style="white-space: pre;" direction="ltr" dominant-baseline="text-before-edge">push|</text><text x="37.52996063232422" y="25" font-family="Virgil, Segoe UI Emoji" font-size="20px" fill="#1e1e1e" text-anchor="middle" style="white-space: pre;" direction="ltr" dominant-baseline="text-before-edge">webhook</text></g><g mask="url(#mask-PGHLfOT1_znSCch6OMPWd)" stroke-linecap="round"><g transform="translate(666.1084227494428 93.93446180555532) rotate(0 -30.912843762002296 115.30783675418225)"><path d="M0.89 0.44 C-9.49 39.04, -52.14 192.57, -62.71 230.99 M-0.11 -0.37 C-10.05 37.96, -49.76 191.14, -60.35 229.4" stroke="#1e1e1e" stroke-width="1" fill="none"></path></g><g transform="translate(666.1084227494428 93.93446180555532) rotate(0 -30.912843762002296 115.30783675418225)"><path d="M-62.26 198.42 C-60.77 206.48, -60.12 215.19, -61.1 230.32 M-63.71 199.62 C-61.99 211.17, -61.35 221.85, -60.68 229.69" stroke="#1e1e1e" stroke-width="1" fill="none"></path></g><g transform="translate(666.1084227494428 93.93446180555532) rotate(0 -30.912843762002296 115.30783675418225)"><path d="M-42.43 203.71 C-46.13 210.52, -50.69 217.85, -61.1 230.32 M-43.88 204.91 C-49.77 214.45, -56.74 223.11, -60.68 229.69" stroke="#1e1e1e" stroke-width="1" fill="none"></path></g></g><mask id="mask-PGHLfOT1_znSCch6OMPWd"><rect x="0" y="0" fill="#fff" width="828.1671746276585" height="423.9149305555551"></rect><rect x="597.5490861780106" y="183.9246961805552" fill="#000" width="75.05992126464844" height="50" opacity="1"></rect></mask><g transform="translate(597.5490861780106 183.9246961805552) rotate(0 37.646492809429844 25.31760237918236)"><text x="37.52996063232422" y="0" font-family="Virgil, Segoe UI Emoji" font-size="20px" fill="#1e1e1e" text-anchor="middle" style="white-space: pre;" direction="ltr" dominant-baseline="text-before-edge">push</text><text x="37.52996063232422" y="25" font-family="Virgil, Segoe UI Emoji" font-size="20px" fill="#1e1e1e" text-anchor="middle" style="white-space: pre;" direction="ltr" dominant-baseline="text-before-edge">webhook</text></g><g mask="url(#mask-thIvc62QWUJdFDM9_nboA)" stroke-linecap="round"><g transform="translate(835.7564739042359 95.03103298611131) rotate(0 -106.52740851902956 113.32998118869521)"><path d="M-1.14 0.33 C-36.83 37.92, -177.38 188.37, -212.96 225.88 M0.46 -0.55 C-35.42 37.19, -178.06 189.41, -213.51 227.21" stroke="#1e1e1e" stroke-width="1" fill="none"></path></g><g transform="translate(835.7564739042359 95.03103298611131) rotate(0 -106.52740851902956 113.32998118869521)"><path d="M-201.17 200.88 C-206.96 208.87, -212.47 221.98, -215.46 227.67 M-201.84 200.52 C-206.42 210.56, -210.88 221.26, -213.18 228.16" stroke="#1e1e1e" stroke-width="1" fill="none"></path></g><g transform="translate(835.7564739042359 95.03103298611131) rotate(0 -106.52740851902956 113.32998118869521)"><path d="M-186.2 214.92 C-197.95 217.21, -209.38 224.77, -215.46 227.67 M-186.87 214.55 C-197.27 219.18, -207.56 224.41, -213.18 228.16" stroke="#1e1e1e" stroke-width="1" fill="none"></path></g></g><mask id="mask-thIvc62QWUJdFDM9_nboA"><rect x="0" y="0" fill="#fff" width="1149.4704949469256" height="421.29448784722194"></rect><rect x="691.3695027505669" y="183.16276041666663" fill="#000" width="75.05992126464844" height="50" opacity="1"></rect></mask><g transform="translate(691.369502750567 183.16276041666663) rotate(0 37.859562634639474 25.1982537581399)"><text x="37.52996063232422" y="0" font-family="Virgil, Segoe UI Emoji" font-size="20px" fill="#1e1e1e" text-anchor="middle" style="white-space: pre;" direction="ltr" dominant-baseline="text-before-edge">push</text><text x="37.52996063232422" y="25" font-family="Virgil, Segoe UI Emoji" font-size="20px" fill="#1e1e1e" text-anchor="middle" style="white-space: pre;" direction="ltr" dominant-baseline="text-before-edge">webhook</text></g><g mask="url(#mask-aDO2TspHJCyjTWbcIL1oO)" stroke-linecap="round"><g transform="translate(558.9644504123273 372.17339409722194) rotate(0 -30.01617499960173 67.14375568346215)"><path d="M-1.09 -0.25 C-10.83 22, -49.83 111.88, -59.58 134.11 M0.54 -1.42 C-9.27 20.99, -50.41 113.14, -60.58 135.71" stroke="#1e1e1e" stroke-width="1" fill="none"></path></g><g transform="translate(558.9644504123273 372.17339409722194) rotate(0 -30.01617499960173 67.14375568346215)"><path d="M-58.83 105.65 C-58.51 111.77, -60.58 116.69, -59.87 137.38 M-58.75 105.09 C-59.66 112.36, -59.13 118.91, -61.34 136.01" stroke="#1e1e1e" stroke-width="1" fill="none"></path></g><g transform="translate(558.9644504123273 372.17339409722194) rotate(0 -30.01617499960173 67.14375568346215)"><path d="M-40.1 114.04 C-43.7 118.26, -49.64 121.44, -59.87 137.38 M-40.02 113.48 C-45.11 118.82, -48.79 123.49, -61.34 136.01" stroke="#1e1e1e" stroke-width="1" fill="none"></path></g></g><mask id="mask-aDO2TspHJCyjTWbcIL1oO"><rect x="0" y="0" fill="#fff" width="718.4642333984384" height="606.163194444444"></rect><rect x="488.96458943685" y="426.668294270833" fill="#000" width="80.49993896484375" height="25" opacity="1"></rect></mask><g transform="translate(488.9645894368499 426.668294270833) rotate(0 39.98368597587569 12.648855509851117)"><text x="40.249969482421875" y="0" font-family="Virgil, Segoe UI Emoji" font-size="20px" fill="#1e1e1e" text-anchor="middle" style="white-space: pre;" direction="ltr" dominant-baseline="text-before-edge">manages</text></g><g mask="url(#mask-XrdcB_axnmodDh4ioUF3x)" stroke-linecap="round"><g transform="translate(637.8517116970494 375.9226505665375) rotate(0 42.02293166977552 62.00348376793159)"><path d="M-0.42 -1.13 C13.3 19.71, 68.39 104.18, 82.17 125.14 M1.57 0.89 C15.67 21.41, 71.2 103.32, 84.46 123.59" stroke="#1e1e1e" stroke-width="1" fill="none"></path></g><g transform="translate(637.8517116970494 375.9226505665375) rotate(0 42.02293166977552 62.00348376793159)"><path d="M58.39 104.52 C69.15 109.95, 75.26 115.11, 84.46 122.61 M61.05 105.44 C68.49 111.16, 75.59 118.07, 84.34 122.91" stroke="#1e1e1e" stroke-width="1" fill="none"></path></g><g transform="translate(637.8517116970494 375.9226505665375) rotate(0 42.02293166977552 62.00348376793159)"><path d="M75.45 93.12 C81.26 101.8, 82.42 110.28, 84.46 122.61 M78.11 94.04 C79.92 103.47, 81.49 114.08, 84.34 122.91" stroke="#1e1e1e" stroke-width="1" fill="none"></path></g></g><mask id="mask-XrdcB_axnmodDh4ioUF3x"><rect x="0" y="0" fill="#fff" width="820.8215467664936" height="599.962364108204"></rect><rect x="639.0866597493497" y="425.4425073373708" fill="#000" width="80.49993896484375" height="25" opacity="1"></rect></mask><g transform="translate(639.0866597493496 425.44250733737084) rotate(0 40.787983617475334 12.48362699709832)"><text x="40.249969482421875" y="0" font-family="Virgil, Segoe UI Emoji" font-size="20px" fill="#1e1e1e" text-anchor="middle" style="white-space: pre;" direction="ltr" dominant-baseline="text-before-edge">manages</text></g></svg>